<?xml version="1.0" encoding="UTF-8"?>
<svg xmlns="http://www.w3.org/2000/svg" xmlns:xlink="http://www.w3.org/1999/xlink" width="156.6pt" height="99.1pt" viewBox="0 0 156.6 99.1" version="1.1">
<defs>
<clipPath id="clip1">
  <path d="M 49 83 L 104 83 L 104 99.101563 L 49 99.101563 Z M 49 83 "/>
</clipPath>
</defs>
<g id="surface1">
<path style=" stroke:none;fill-rule:evenodd;fill:rgb(6.272888%,16.479492%,51.367188%);fill-opacity:1;" d="M 58.082031 86.308594 C 51.632813 79.457031 44.1875 75.4375 45.550781 79.59375 C 46.585938 82.898438 52.546875 84.394531 58.082031 86.308594 Z M 58.082031 86.308594 "/>
<path style=" stroke:none;fill-rule:evenodd;fill:rgb(6.272888%,16.479492%,51.367188%);fill-opacity:1;" d="M 35.535156 86.253906 C 45.664063 84.53125 54.480469 85.617188 50.339844 88.117188 C 47.078125 90.132813 41.296875 87.90625 35.535156 86.253906 Z M 35.535156 86.253906 "/>
<path style=" stroke:none;fill-rule:evenodd;fill:rgb(6.272888%,16.479492%,51.367188%);fill-opacity:1;" d="M 25.109375 80.164063 C 35.363281 80.128906 43.929688 82.65625 39.492188 84.441406 C 35.992188 85.898438 30.582031 82.742188 25.109375 80.164063 Z M 25.109375 80.164063 "/>
<path style=" stroke:none;fill-rule:evenodd;fill:rgb(6.272888%,16.479492%,51.367188%);fill-opacity:1;" d="M 15.929688 73.445313 C 26.183594 73.410156 34.75 75.9375 30.3125 77.726563 C 26.8125 79.183594 21.402344 76.027344 15.929688 73.445313 Z M 15.929688 73.445313 "/>
<path style=" stroke:none;fill-rule:evenodd;fill:rgb(6.272888%,16.479492%,51.367188%);fill-opacity:1;" d="M 44.847656 81.554688 C 39.332031 75.277344 32.859375 71.476563 33.945313 75.195313 C 34.773438 78.15625 40.003906 79.675781 44.847656 81.554688 Z M 44.847656 81.554688 "/>
<path style=" stroke:none;fill-rule:evenodd;fill:rgb(6.272888%,16.479492%,51.367188%);fill-opacity:1;" d="M 31.996094 75.132813 C 28.476563 68.230469 23.589844 63.257813 23.765625 66.796875 C 23.867188 69.605469 28.140625 72.257813 31.996094 75.132813 Z M 31.996094 75.132813 "/>
<path style=" stroke:none;fill-rule:evenodd;fill:rgb(6.272888%,16.479492%,51.367188%);fill-opacity:1;" d="M 21.480469 68.34375 C 20.734375 60.480469 18.035156 53.796875 16.921875 57.125 C 16.003906 59.75 18.972656 64.035156 21.480469 68.34375 Z M 21.480469 68.34375 "/>
<path style=" stroke:none;fill-rule:evenodd;fill:rgb(6.272888%,16.479492%,51.367188%);fill-opacity:1;" d="M 7.222656 62.984375 C 16.558594 65.949219 23.742188 70.75 19.269531 71.078125 C 15.730469 71.382813 11.570313 66.929688 7.222656 62.984375 Z M 7.222656 62.984375 "/>
<path style=" stroke:none;fill-rule:evenodd;fill:rgb(6.272888%,16.479492%,51.367188%);fill-opacity:1;" d="M 2.054688 52.5 C 11.28125 57.28125 17.996094 63.570313 13.308594 63.09375 C 9.59375 62.761719 5.960938 57.386719 2.054688 52.5 Z M 2.054688 52.5 "/>
<path style=" stroke:none;fill-rule:evenodd;fill:rgb(6.272888%,16.479492%,51.367188%);fill-opacity:1;" d="M 8.90625 54.792969 C 2.824219 45.8125 0.0429688 39.035156 3.972656 41.875 C 7.109375 44.085938 7.5625 48.464844 8.90625 54.792969 Z M 8.90625 54.792969 "/>
<path style=" stroke:none;fill-rule:evenodd;fill:rgb(6.272888%,16.479492%,51.367188%);fill-opacity:1;" d="M 13.511719 57.761719 C 16.367188 50.496094 16.996094 44.503906 14.535156 46.808594 C 12.566406 48.609375 13.246094 52.660156 13.511719 57.761719 Z M 13.511719 57.761719 "/>
<path style=" stroke:none;fill-rule:evenodd;fill:rgb(6.272888%,16.479492%,51.367188%);fill-opacity:1;" d="M 17.09375 36.828125 C 15.242188 44.472656 12.355469 49.609375 11.722656 46.132813 C 11.1875 43.386719 14.007813 40.660156 17.09375 36.828125 Z M 17.09375 36.828125 "/>
<path style=" stroke:none;fill-rule:evenodd;fill:rgb(6.272888%,16.479492%,51.367188%);fill-opacity:1;" d="M 17.238281 28.355469 C 15.386719 35.996094 12.5 41.136719 11.867188 37.65625 C 11.332031 34.910156 14.152344 32.183594 17.238281 28.355469 Z M 17.238281 28.355469 "/>
<path style=" stroke:none;fill-rule:evenodd;fill:rgb(6.272888%,16.479492%,51.367188%);fill-opacity:1;" d="M 7.398438 31.757813 C 7.859375 32.539063 8.21875 33.359375 8.472656 34.222656 C 8.953125 35.859375 9.285156 38.753906 9.015625 40.496094 C 8.871094 41.457031 8.445313 42.3125 7.628906 43.027344 C 7.054688 42.5 6.554688 41.941406 6.144531 41.332031 C 4.613281 39.066406 4.902344 36.625 5.847656 34.1875 C 6.238281 33.167969 6.746094 32.335938 7.398438 31.757813 Z M 7.398438 31.757813 "/>
<path style=" stroke:none;fill-rule:evenodd;fill:rgb(6.272888%,16.479492%,51.367188%);fill-opacity:1;" d="M 13.363281 22.226563 C 13.570313 23.128906 13.671875 24.035156 13.660156 24.9375 C 13.636719 26.660156 13.109375 29.515625 12.34375 31.074219 C 11.925781 31.933594 11.273438 32.597656 10.289063 32.984375 C 9.902344 32.285156 9.589844 31.578125 9.378906 30.859375 C 8.589844 28.175781 9.578125 25.964844 11.183594 23.984375 C 11.851563 23.160156 12.574219 22.546875 13.363281 22.226563 Z M 13.363281 22.226563 "/>
<path style=" stroke:none;fill-rule:evenodd;fill:rgb(6.272888%,16.479492%,51.367188%);fill-opacity:1;" d="M 21.539063 14.148438 C 21.5 15.078125 21.359375 15.976563 21.109375 16.835938 C 20.636719 18.480469 19.378906 21.046875 18.238281 22.300781 C 17.613281 22.988281 16.8125 23.417969 15.769531 23.480469 C 15.582031 22.6875 15.46875 21.910156 15.453125 21.160156 C 15.40625 18.339844 16.929688 16.535156 18.988281 15.144531 C 19.847656 14.5625 20.699219 14.203125 21.539063 14.148438 Z M 21.539063 14.148438 "/>
<path style=" stroke:none;fill-rule:evenodd;fill:rgb(6.272888%,16.479492%,51.367188%);fill-opacity:1;" d="M 34.265625 7.121094 C 33.996094 7.882813 33.335938 8.734375 32.90625 9.375 C 31.785156 11.042969 26.695313 15.722656 24.625 15.085938 C 24.796875 12.550781 29.503906 7.824219 31.578125 7.304688 C 32.441406 7.089844 33.550781 6.910156 34.265625 7.121094 Z M 34.265625 7.121094 "/>
<path style=" stroke:none;fill-rule:evenodd;fill:rgb(6.272888%,16.479492%,51.367188%);fill-opacity:1;" d="M 62.054688 1.675781 C 61.496094 2.21875 60.554688 2.644531 59.90625 3 C 58.214844 3.925781 51.738281 5.542969 50.160156 3.941406 C 51.367188 1.769531 57.523438 -0.078125 59.585938 0.492188 C 60.445313 0.734375 61.507813 1.128906 62.054688 1.675781 Z M 62.054688 1.675781 "/>
<path style=" stroke:none;fill-rule:evenodd;fill:rgb(6.272888%,16.479492%,51.367188%);fill-opacity:1;" d="M 47.03125 3.390625 C 46.648438 3.988281 45.914063 4.566406 45.417969 5.019531 C 44.121094 6.195313 38.808594 9.046875 37.144531 8.007813 C 37.789063 5.859375 42.78125 2.878906 44.671875 2.917969 C 45.460938 2.933594 46.457031 3.039063 47.03125 3.390625 Z M 47.03125 3.390625 "/>
<path style=" stroke:none;fill-rule:evenodd;fill:rgb(6.272888%,16.479492%,51.367188%);fill-opacity:1;" d="M 52.425781 7.875 C 51.90625 8.328125 51.050781 8.65625 50.457031 8.933594 C 48.914063 9.664063 43.082031 10.753906 41.75 9.242188 C 42.925781 7.378906 48.480469 6.070313 50.285156 6.691406 C 51.039063 6.949219 51.964844 7.359375 52.425781 7.875 Z M 52.425781 7.875 "/>
<path style=" stroke:none;fill-rule:evenodd;fill:rgb(6.272888%,16.479492%,51.367188%);fill-opacity:1;" d="M 42.929688 11.417969 C 42.410156 11.871094 41.554688 12.199219 40.960938 12.476563 C 39.414063 13.210938 33.585938 14.296875 32.253906 12.785156 C 33.425781 10.921875 38.984375 9.613281 40.789063 10.234375 C 41.542969 10.492188 42.46875 10.902344 42.929688 11.417969 Z M 42.929688 11.417969 "/>
<path style=" stroke:none;fill-rule:evenodd;fill:rgb(6.272888%,16.479492%,51.367188%);fill-opacity:1;" d="M 34.226563 15.996094 C 33.746094 16.5 32.925781 16.914063 32.359375 17.253906 C 30.882813 18.144531 25.171875 19.832031 23.71875 18.464844 C 24.726563 16.488281 30.144531 14.609375 31.992188 15.039063 C 32.765625 15.21875 33.722656 15.53125 34.226563 15.996094 Z M 34.226563 15.996094 "/>
<path style=" stroke:none;fill-rule:evenodd;fill:rgb(6.272888%,16.479492%,51.367188%);fill-opacity:1;" d="M 26.128906 21.859375 C 25.820313 22.507813 25.15625 23.183594 24.71875 23.703125 C 23.578125 25.054688 18.644531 28.636719 16.871094 27.84375 C 17.257813 25.621094 21.851563 21.960938 23.734375 21.726563 C 24.519531 21.632813 25.515625 21.59375 26.128906 21.859375 Z M 26.128906 21.859375 "/>
<g clip-path="url(#clip1)" clip-rule="nonzero">
<path style=" stroke:none;fill-rule:evenodd;fill:rgb(6.272888%,16.479492%,51.367188%);fill-opacity:1;" d="M 66.558594 88.886719 C 64.113281 87.082031 61.671875 85.28125 59.226563 83.476563 C 62.640625 82.664063 66.246094 82.128906 75.785156 90.273438 C 77.175781 90.875 78.566406 91.476563 79.957031 92.078125 C 87.886719 94.976563 95.347656 96.234375 103.59375 96.933594 C 102.371094 97.625 101.152344 98.320313 99.929688 99.011719 C 93.195313 97.589844 87.101563 95.949219 80.589844 93.601563 C 79.746094 93.230469 78.902344 92.863281 78.0625 92.492188 C 66.191406 94.023438 57.398438 93.097656 49.242188 91.660156 C 50.75 89.695313 55.953125 88.632813 66.558594 88.886719 Z M 66.558594 88.886719 "/>
</g>
<path style=" stroke:none;fill-rule:evenodd;fill:rgb(6.272888%,16.479492%,51.367188%);fill-opacity:1;" d="M 52.402344 96.65625 C 59.03125 96.726563 65.550781 95.683594 71.992188 93.878906 C 72.078125 94.113281 72.164063 94.34375 72.246094 94.574219 C 65.636719 96.683594 58.945313 97.808594 52.148438 97.625 C 52.234375 97.300781 52.316406 96.976563 52.402344 96.65625 Z M 52.402344 96.65625 "/>
<path style=" stroke:none;fill-rule:evenodd;fill:rgb(6.272888%,16.479492%,51.367188%);fill-opacity:1;" d="M 98.589844 86.308594 C 105.039063 79.457031 112.484375 75.4375 111.125 79.59375 C 110.085938 82.898438 104.125 84.394531 98.589844 86.308594 Z M 98.589844 86.308594 "/>
<path style=" stroke:none;fill-rule:evenodd;fill:rgb(6.272888%,16.479492%,51.367188%);fill-opacity:1;" d="M 121.140625 86.253906 C 111.007813 84.53125 102.191406 85.617188 106.332031 88.117188 C 109.59375 90.132813 115.378906 87.90625 121.140625 86.253906 Z M 121.140625 86.253906 "/>
<path style=" stroke:none;fill-rule:evenodd;fill:rgb(6.272888%,16.479492%,51.367188%);fill-opacity:1;" d="M 131.5625 80.164063 C 121.3125 80.128906 112.742188 82.65625 117.179688 84.441406 C 120.679688 85.898438 126.09375 82.742188 131.5625 80.164063 Z M 131.5625 80.164063 "/>
<path style=" stroke:none;fill-rule:evenodd;fill:rgb(6.272888%,16.479492%,51.367188%);fill-opacity:1;" d="M 140.742188 73.445313 C 130.492188 73.410156 121.921875 75.9375 126.359375 77.726563 C 129.863281 79.183594 135.273438 76.027344 140.742188 73.445313 Z M 140.742188 73.445313 "/>
<path style=" stroke:none;fill-rule:evenodd;fill:rgb(6.272888%,16.479492%,51.367188%);fill-opacity:1;" d="M 111.828125 81.554688 C 117.339844 75.277344 123.816406 71.476563 122.726563 75.195313 C 121.902344 78.15625 116.667969 79.675781 111.828125 81.554688 Z M 111.828125 81.554688 "/>
<path style=" stroke:none;fill-rule:evenodd;fill:rgb(6.272888%,16.479492%,51.367188%);fill-opacity:1;" d="M 124.675781 75.132813 C 128.199219 68.230469 133.082031 63.257813 132.910156 66.796875 C 132.804688 69.605469 128.53125 72.257813 124.675781 75.132813 Z M 124.675781 75.132813 "/>
<path style=" stroke:none;fill-rule:evenodd;fill:rgb(6.272888%,16.479492%,51.367188%);fill-opacity:1;" d="M 135.191406 68.34375 C 135.941406 60.480469 138.636719 53.796875 139.753906 57.125 C 140.671875 59.75 137.699219 64.035156 135.191406 68.34375 Z M 135.191406 68.34375 "/>
<path style=" stroke:none;fill-rule:evenodd;fill:rgb(6.272888%,16.479492%,51.367188%);fill-opacity:1;" d="M 149.453125 62.984375 C 140.113281 65.949219 132.929688 70.75 137.402344 71.078125 C 140.945313 71.382813 145.101563 66.929688 149.453125 62.984375 Z M 149.453125 62.984375 "/>
<path style=" stroke:none;fill-rule:evenodd;fill:rgb(6.272888%,16.479492%,51.367188%);fill-opacity:1;" d="M 154.621094 52.5 C 145.390625 57.28125 138.675781 63.570313 143.363281 63.09375 C 147.082031 62.761719 150.710938 57.386719 154.621094 52.5 Z M 154.621094 52.5 "/>
<path style=" stroke:none;fill-rule:evenodd;fill:rgb(6.272888%,16.479492%,51.367188%);fill-opacity:1;" d="M 147.765625 54.792969 C 153.851563 45.8125 156.628906 39.035156 152.699219 41.875 C 149.566406 44.085938 149.113281 48.464844 147.765625 54.792969 Z M 147.765625 54.792969 "/>
<path style=" stroke:none;fill-rule:evenodd;fill:rgb(6.272888%,16.479492%,51.367188%);fill-opacity:1;" d="M 143.160156 57.761719 C 140.304688 50.496094 139.679688 44.503906 142.136719 46.808594 C 144.109375 48.609375 143.429688 52.660156 143.160156 57.761719 Z M 143.160156 57.761719 "/>
<path style=" stroke:none;fill-rule:evenodd;fill:rgb(6.272888%,16.479492%,51.367188%);fill-opacity:1;" d="M 139.582031 36.828125 C 141.433594 44.472656 144.320313 49.609375 144.949219 46.132813 C 145.488281 43.386719 142.667969 40.660156 139.582031 36.828125 Z M 139.582031 36.828125 "/>
<path style=" stroke:none;fill-rule:evenodd;fill:rgb(6.272888%,16.479492%,51.367188%);fill-opacity:1;" d="M 139.433594 28.355469 C 141.285156 35.996094 144.171875 41.136719 144.804688 37.65625 C 145.339844 34.910156 142.523438 32.183594 139.433594 28.355469 Z M 139.433594 28.355469 "/>
<path style=" stroke:none;fill-rule:evenodd;fill:rgb(6.272888%,16.479492%,51.367188%);fill-opacity:1;" d="M 149.273438 31.757813 C 148.8125 32.539063 148.457031 33.359375 148.203125 34.222656 C 147.71875 35.859375 147.386719 38.753906 147.65625 40.496094 C 147.804688 41.457031 148.226563 42.3125 149.046875 43.027344 C 149.617188 42.5 150.121094 41.941406 150.53125 41.332031 C 152.058594 39.066406 151.769531 36.625 150.828125 34.1875 C 150.433594 33.167969 149.929688 32.335938 149.273438 31.757813 Z M 149.273438 31.757813 "/>
<path style=" stroke:none;fill-rule:evenodd;fill:rgb(6.272888%,16.479492%,51.367188%);fill-opacity:1;" d="M 143.3125 22.226563 C 143.101563 23.128906 143.003906 24.035156 143.015625 24.9375 C 143.035156 26.660156 143.566406 29.515625 144.328125 31.074219 C 144.75 31.933594 145.398438 32.597656 146.382813 32.984375 C 146.773438 32.285156 147.085938 31.578125 147.296875 30.859375 C 148.082031 28.175781 147.097656 25.964844 145.492188 23.984375 C 144.820313 23.160156 144.101563 22.546875 143.3125 22.226563 Z M 143.3125 22.226563 "/>
<path style=" stroke:none;fill-rule:evenodd;fill:rgb(6.272888%,16.479492%,51.367188%);fill-opacity:1;" d="M 135.136719 14.148438 C 135.171875 15.078125 135.316406 15.976563 135.5625 16.835938 C 136.035156 18.480469 137.292969 21.046875 138.4375 22.300781 C 139.0625 22.988281 139.859375 23.417969 140.90625 23.480469 C 141.09375 22.6875 141.207031 21.910156 141.21875 21.160156 C 141.269531 18.339844 139.742188 16.535156 137.683594 15.144531 C 136.828125 14.5625 135.976563 14.203125 135.136719 14.148438 Z M 135.136719 14.148438 "/>
<path style=" stroke:none;fill-rule:evenodd;fill:rgb(6.272888%,16.479492%,51.367188%);fill-opacity:1;" d="M 122.40625 7.121094 C 122.679688 7.882813 123.339844 8.734375 123.765625 9.375 C 124.886719 11.042969 129.976563 15.722656 132.050781 15.085938 C 131.878906 12.550781 127.167969 7.824219 125.097656 7.304688 C 124.234375 7.089844 123.121094 6.910156 122.40625 7.121094 Z M 122.40625 7.121094 "/>
<path style=" stroke:none;fill-rule:evenodd;fill:rgb(6.272888%,16.479492%,51.367188%);fill-opacity:1;" d="M 109.640625 3.390625 C 110.027344 3.988281 110.761719 4.566406 111.257813 5.019531 C 112.550781 6.195313 117.863281 9.046875 119.53125 8.007813 C 118.886719 5.859375 113.894531 2.878906 112 2.917969 C 111.210938 2.933594 110.21875 3.039063 109.640625 3.390625 Z M 109.640625 3.390625 "/>
<path style=" stroke:none;fill-rule:evenodd;fill:rgb(6.272888%,16.479492%,51.367188%);fill-opacity:1;" d="M 104.246094 7.875 C 104.769531 8.328125 105.625 8.65625 106.214844 8.933594 C 107.761719 9.664063 113.59375 10.753906 114.921875 9.242188 C 113.75 7.378906 108.195313 6.070313 106.386719 6.691406 C 105.636719 6.949219 104.707031 7.359375 104.246094 7.875 Z M 104.246094 7.875 "/>
<path style=" stroke:none;fill-rule:evenodd;fill:rgb(6.272888%,16.479492%,51.367188%);fill-opacity:1;" d="M 113.742188 11.417969 C 114.265625 11.871094 115.121094 12.199219 115.710938 12.476563 C 117.257813 13.210938 123.089844 14.296875 124.417969 12.785156 C 123.246094 10.921875 117.691406 9.613281 115.886719 10.234375 C 115.132813 10.492188 114.207031 10.902344 113.742188 11.417969 Z M 113.742188 11.417969 "/>
<path style=" stroke:none;fill-rule:evenodd;fill:rgb(6.272888%,16.479492%,51.367188%);fill-opacity:1;" d="M 122.445313 15.996094 C 122.925781 16.5 123.75 16.914063 124.316406 17.253906 C 125.789063 18.144531 131.5 19.832031 132.957031 18.464844 C 131.949219 16.488281 126.53125 14.609375 124.679688 15.039063 C 123.910156 15.21875 122.949219 15.53125 122.445313 15.996094 Z M 122.445313 15.996094 "/>
<path style=" stroke:none;fill-rule:evenodd;fill:rgb(6.272888%,16.479492%,51.367188%);fill-opacity:1;" d="M 130.542969 21.859375 C 130.855469 22.507813 131.515625 23.183594 131.953125 23.703125 C 133.097656 25.054688 138.027344 28.636719 139.800781 27.84375 C 139.417969 25.621094 134.820313 21.960938 132.941406 21.726563 C 132.15625 21.632813 131.15625 21.59375 130.542969 21.859375 Z M 130.542969 21.859375 "/>
<path style=" stroke:none;fill-rule:evenodd;fill:rgb(6.272888%,16.479492%,51.367188%);fill-opacity:1;" d="M 94.265625 1.800781 C 94.824219 2.34375 95.765625 2.769531 96.414063 3.125 C 98.105469 4.050781 104.582031 5.671875 106.160156 4.066406 C 104.953125 1.898438 98.792969 0.046875 96.734375 0.621094 C 95.875 0.859375 94.8125 1.253906 94.265625 1.800781 Z M 94.265625 1.800781 "/>
<path style=" stroke:none;fill-rule:evenodd;fill:rgb(6.272888%,16.479492%,51.367188%);fill-opacity:1;" d="M 87.378906 89.722656 C 93.597656 89.109375 99.816406 89.367188 106.042969 91.164063 C 98.144531 92.933594 90.273438 94.808594 81.046875 89.992188 C 86.171875 84.820313 91.734375 82.292969 97.738281 82.414063 C 94.449219 85.910156 90.585938 87.5 86.636719 88.820313 C 86.886719 89.121094 87.132813 89.421875 87.378906 89.722656 Z M 87.378906 89.722656 "/>
<path style=" stroke:none;fill-rule:evenodd;fill:rgb(6.272888%,16.479492%,51.367188%);fill-opacity:1;" d="M 41.859375 45.234375 L 35.59375 45.234375 C 34.578125 45.234375 33.769531 45.121094 33.179688 44.902344 C 32.578125 44.683594 32.148438 44.300781 31.894531 43.769531 C 31.636719 43.234375 31.507813 42.5 31.507813 41.578125 C 31.507813 40.210938 31.800781 39.269531 32.382813 38.746094 C 32.96875 38.226563 34.011719 37.964844 35.515625 37.964844 L 41.859375 37.964844 L 41.859375 39.683594 L 36.085938 39.683594 C 35.023438 39.683594 34.269531 39.828125 33.824219 40.113281 C 33.386719 40.398438 33.164063 40.871094 33.164063 41.53125 C 33.164063 42.207031 33.394531 42.710938 33.84375 43.03125 C 34.300781 43.355469 35.070313 43.511719 36.167969 43.511719 L 41.859375 43.511719 Z M 41.859375 54.648438 L 35.925781 54.648438 C 34.363281 54.648438 33.230469 54.324219 32.546875 53.6875 C 31.851563 53.050781 31.507813 52.082031 31.507813 50.773438 C 31.507813 49.453125 31.824219 48.476563 32.464844 47.847656 C 33.105469 47.214844 34.175781 46.898438 35.667969 46.898438 L 41.859375 46.898438 L 41.859375 48.574219 L 36.402344 48.574219 C 35.3125 48.574219 34.511719 48.730469 34.007813 49.046875 C 33.5 49.355469 33.246094 49.910156 33.246094 50.699219 C 33.246094 51.382813 33.359375 51.886719 33.589844 52.207031 C 33.816406 52.53125 34.140625 52.726563 34.558594 52.808594 C 34.96875 52.890625 35.613281 52.929688 36.476563 52.929688 L 41.859375 52.929688 Z M 41.859375 57.988281 L 35.003906 57.988281 C 34.109375 57.988281 33.113281 57.863281 32.019531 57.605469 C 30.929688 57.34375 29.914063 56.722656 28.980469 55.722656 C 28.035156 54.722656 27.566406 53.265625 27.566406 51.351563 C 27.566406 50.089844 27.71875 49.046875 28.03125 48.214844 C 28.339844 47.386719 28.84375 46.675781 29.539063 46.089844 C 28.871094 45.519531 28.398438 44.871094 28.128906 44.152344 C 27.863281 43.429688 27.71875 42.5 27.71875 41.359375 C 27.71875 40.195313 27.910156 39.121094 28.277344 38.144531 C 28.640625 37.160156 29.121094 36.410156 29.699219 35.890625 C 30.210938 35.390625 30.75 35.050781 31.320313 34.878906 C 31.894531 34.707031 32.769531 34.625 33.9375 34.625 L 41.859375 34.625 L 41.859375 36.296875 L 33.582031 36.296875 C 32.835938 36.296875 32.269531 36.371094 31.886719 36.515625 C 31.503906 36.664063 31.144531 36.957031 30.800781 37.402344 C 30.460938 37.824219 30.175781 38.453125 29.953125 39.285156 C 29.734375 40.128906 29.617188 41.035156 29.617188 42.019531 C 29.617188 43.632813 30.25 44.984375 31.507813 46.089844 C 30.195313 47.441406 29.539063 48.972656 29.539063 50.683594 C 29.539063 54.4375 31.527344 56.316406 35.515625 56.316406 L 41.859375 56.316406 Z M 41.859375 59.632813 L 41.859375 61.308594 L 33.246094 61.308594 C 32.089844 61.308594 30.929688 61.144531 29.765625 60.8125 C 28.601563 60.484375 27.566406 59.972656 26.648438 59.289063 C 25.734375 58.597656 25 57.703125 24.449219 56.617188 C 23.898438 55.519531 23.613281 54.265625 23.601563 52.839844 C 23.601563 51.128906 23.742188 49.753906 24.019531 48.722656 C 24.292969 47.703125 24.8125 46.824219 25.574219 46.089844 C 25.222656 45.59375 24.921875 45.03125 24.65625 44.414063 C 24.394531 43.800781 24.214844 43.128906 24.105469 42.402344 C 23.992188 41.675781 23.9375 40.816406 23.9375 39.820313 C 23.9375 38.878906 24.078125 37.957031 24.367188 37.054688 C 24.65625 36.15625 25.0625 35.351563 25.574219 34.640625 C 26.085938 33.925781 26.667969 33.347656 27.324219 32.890625 C 28.230469 32.242188 29.179688 31.816406 30.171875 31.613281 C 31.167969 31.410156 32.714844 31.304688 34.828125 31.304688 L 41.859375 31.304688 L 41.859375 32.980469 L 34.351563 32.980469 C 32.769531 32.980469 31.582031 33.085938 30.777344 33.285156 C 29.976563 33.488281 29.226563 33.851563 28.527344 34.367188 C 28.003906 34.757813 27.53125 35.285156 27.121094 35.9375 C 26.703125 36.589844 26.386719 37.320313 26.164063 38.113281 C 25.941406 38.910156 25.828125 39.722656 25.828125 40.546875 C 25.828125 41.863281 25.964844 42.941406 26.226563 43.777344 C 26.488281 44.617188 26.933594 45.382813 27.566406 46.089844 C 26.832031 46.90625 26.3125 47.757813 26.015625 48.617188 C 25.722656 49.484375 25.574219 50.632813 25.574219 52.074219 C 25.574219 53.800781 25.988281 55.226563 26.824219 56.359375 C 27.660156 57.488281 28.742188 58.3125 30.082031 58.84375 C 31.414063 59.371094 32.808594 59.632813 34.269531 59.632813 Z M 54.128906 51.808594 L 54.128906 50.316406 C 55.589844 50.398438 56.667969 50.585938 57.375 50.863281 C 58.074219 51.140625 58.539063 51.621094 58.761719 52.304688 C 58.984375 52.980469 59.097656 54.109375 59.097656 55.675781 L 59.097656 61.308594 L 57.441406 61.308594 L 57.441406 56.804688 C 57.441406 55.375 57.382813 54.347656 57.265625 53.710938 C 57.144531 53.070313 56.863281 52.613281 56.40625 52.335938 C 55.953125 52.058594 55.195313 51.886719 54.128906 51.808594 Z M 46.101563 61.308594 L 44.363281 61.308594 L 44.363281 31.304688 L 54.460938 31.304688 C 56.265625 31.351563 57.765625 31.523438 58.984375 31.824219 C 60.195313 32.125 61.257813 32.597656 62.160156 33.242188 C 64.523438 34.984375 65.699219 37.476563 65.699219 40.71875 C 65.699219 42.613281 65.613281 44.078125 65.4375 45.121094 C 65.261719 46.164063 64.804688 47.164063 64.066406 48.117188 C 64.832031 49.070313 65.335938 50.015625 65.585938 50.960938 C 65.835938 51.90625 65.957031 53.417969 65.957031 55.503906 L 65.957031 61.308594 L 64.21875 61.308594 L 64.21875 54.378906 C 64.21875 52.726563 64.03125 51.421875 63.648438 50.464844 C 63.265625 49.511719 62.652344 48.761719 61.808594 48.199219 C 62.605469 47.523438 63.175781 46.59375 63.53125 45.390625 C 63.890625 44.195313 64.066406 42.84375 64.066406 41.34375 C 64.066406 38.40625 63.023438 36.164063 60.929688 34.625 C 59.394531 33.527344 57.1875 32.980469 54.304688 32.980469 L 46.101563 32.980469 Z M 49.492188 61.308594 L 47.757813 61.308594 L 47.757813 34.625 L 54.050781 34.625 C 55.390625 34.667969 56.507813 34.804688 57.414063 35.03125 C 58.324219 35.261719 59.097656 35.613281 59.738281 36.101563 C 60.617188 36.792969 61.277344 37.640625 61.722656 38.648438 C 62.171875 39.652344 62.394531 40.773438 62.394531 42.003906 C 62.394531 43.316406 62.039063 44.566406 61.324219 45.757813 C 60.613281 46.945313 59.765625 47.734375 58.78125 48.117188 C 59.878906 48.507813 60.789063 49.160156 61.5 50.070313 C 62.214844 50.976563 62.570313 52.179688 62.570313 53.65625 L 62.570313 61.308594 L 60.835938 61.308594 L 60.835938 54.957031 C 60.835938 53.328125 60.585938 52.074219 60.085938 51.203125 C 59.582031 50.332031 58.863281 49.730469 57.90625 49.40625 C 56.949219 49.085938 55.691406 48.925781 54.128906 48.925781 L 54.128906 47.386719 C 55.691406 47.328125 56.972656 47.085938 57.953125 46.675781 C 58.941406 46.253906 59.667969 45.644531 60.132813 44.851563 C 60.597656 44.046875 60.835938 43.046875 60.835938 41.839844 C 60.835938 40.539063 60.550781 39.472656 59.992188 38.664063 C 59.433594 37.851563 58.585938 37.25 57.457031 36.867188 C 56.316406 36.484375 54.816406 36.296875 52.964844 36.296875 L 49.492188 36.296875 Z M 51.230469 61.308594 L 51.230469 37.964844 L 52.964844 37.964844 C 54.554688 37.964844 55.785156 38.101563 56.65625 38.363281 C 57.523438 38.625 58.140625 39.046875 58.527344 39.625 C 58.910156 40.210938 59.097656 41.007813 59.097656 42.011719 C 59.097656 43.332031 58.722656 44.300781 57.96875 44.910156 C 57.207031 45.519531 55.929688 45.878906 54.128906 46 L 54.128906 44.414063 C 55.222656 44.371094 55.996094 44.167969 56.445313 43.800781 C 56.898438 43.429688 57.125 42.835938 57.125 42.019531 C 57.125 41.34375 57.019531 40.847656 56.789063 40.53125 C 56.566406 40.21875 56.171875 40 55.597656 39.871094 C 55.027344 39.746094 54.152344 39.683594 52.964844 39.683594 L 52.964844 61.308594 Z M 81.511719 32.972656 C 80.59375 32.542969 79.652344 32.332031 78.695313 32.332031 C 77.234375 32.332031 75.902344 32.707031 74.691406 33.46875 C 73.480469 34.226563 72.539063 35.253906 71.851563 36.566406 C 71.171875 37.882813 70.828125 39.355469 70.828125 40.984375 C 70.828125 41.875 70.949219 42.6875 71.191406 43.421875 C 71.433594 44.160156 71.796875 45.015625 72.269531 46 C 72.742188 46.980469 73.105469 47.816406 73.355469 48.507813 C 73.601563 49.195313 73.730469 49.917969 73.730469 50.683594 C 73.691406 51.839844 73.265625 52.765625 72.457031 53.445313 C 71.648438 54.128906 70.527344 54.46875 69.09375 54.46875 C 68.488281 54.46875 67.847656 54.371094 67.179688 54.183594 L 67.179688 52.449219 C 67.691406 52.5625 68.433594 52.621094 69.410156 52.621094 C 70.136719 52.621094 70.707031 52.464844 71.125 52.148438 C 71.550781 51.832031 71.757813 51.375 71.757813 50.773438 C 71.757813 50.023438 71.636719 49.289063 71.394531 48.558594 C 71.144531 47.839844 70.808594 47.011719 70.378906 46.089844 C 69.941406 45.164063 69.605469 44.316406 69.367188 43.558594 C 69.132813 42.792969 69.011719 41.96875 69.011719 41.074219 C 69.011719 39.105469 69.410156 37.3125 70.203125 35.703125 C 70.996094 34.089844 72.089844 32.8125 73.480469 31.882813 C 74.867188 30.953125 76.414063 30.488281 78.117188 30.488281 C 79.492188 30.488281 80.621094 30.695313 81.511719 31.125 Z M 81.511719 36.296875 C 80.917969 36.066406 80.292969 35.945313 79.621094 35.945313 C 78.636719 35.945313 77.742188 36.175781 76.941406 36.636719 C 76.140625 37.101563 75.507813 37.746094 75.054688 38.589844 C 74.605469 39.421875 74.375 40.34375 74.375 41.359375 C 74.375 42.175781 74.492188 42.933594 74.726563 43.625 C 74.960938 44.308594 75.34375 45.203125 75.863281 46.285156 C 76.390625 47.371094 76.78125 48.289063 77.042969 49.046875 C 77.304688 49.796875 77.433594 50.5625 77.433594 51.34375 C 77.433594 52.621094 77.109375 53.785156 76.46875 54.84375 C 75.824219 55.894531 74.949219 56.726563 73.835938 57.335938 C 72.734375 57.945313 71.507813 58.253906 70.167969 58.253906 C 69.078125 58.253906 68.082031 58.09375 67.179688 57.789063 L 67.179688 55.941406 C 68.175781 56.246094 68.984375 56.40625 69.605469 56.40625 C 70.695313 56.40625 71.695313 56.164063 72.597656 55.691406 C 73.507813 55.210938 74.226563 54.566406 74.753906 53.738281 C 75.277344 52.921875 75.542969 52.035156 75.542969 51.082031 C 75.542969 50.203125 75.414063 49.398438 75.15625 48.671875 C 74.902344 47.945313 74.519531 47.050781 74.011719 46 C 73.5 44.941406 73.136719 44.078125 72.902344 43.410156 C 72.671875 42.746094 72.558594 41.996094 72.558594 41.179688 C 72.558594 40.195313 72.71875 39.269531 73.050781 38.414063 C 73.378906 37.558594 73.835938 36.816406 74.410156 36.191406 C 74.988281 35.570313 75.6875 35.082031 76.496094 34.722656 C 77.304688 34.359375 78.171875 34.179688 79.109375 34.179688 C 80.015625 34.179688 80.816406 34.339844 81.511719 34.644531 Z M 81.511719 38.054688 L 81.511719 39.8125 C 81.121094 39.667969 80.65625 39.59375 80.109375 39.59375 C 79.457031 39.59375 78.917969 39.8125 78.496094 40.253906 C 78.078125 40.691406 77.847656 41.3125 77.808594 42.125 C 77.808594 42.605469 77.988281 43.273438 78.347656 44.113281 C 78.710938 44.957031 79.074219 45.773438 79.445313 46.554688 C 79.816406 47.34375 80.125 48.152344 80.378906 48.988281 C 80.636719 49.820313 80.761719 50.699219 80.761719 51.628906 C 80.761719 53.078125 80.515625 54.4375 80.015625 55.707031 C 79.511719 56.976563 78.820313 58.09375 77.9375 59.0625 C 77.046875 60.03125 76.019531 60.78125 74.859375 61.316406 C 73.695313 61.847656 72.445313 62.117188 71.105469 62.117188 C 70.433594 62.117188 69.859375 62.074219 69.390625 61.976563 C 68.910156 61.878906 68.175781 61.691406 67.179688 61.398438 L 67.179688 59.542969 C 68.332031 59.972656 69.496094 60.183594 70.667969 60.183594 C 72.167969 60.183594 73.5625 59.8125 74.847656 59.070313 C 76.140625 58.328125 77.15625 57.320313 77.917969 56.042969 C 78.671875 54.769531 79.066406 53.355469 79.109375 51.800781 C 79.109375 50.789063 78.972656 49.878906 78.703125 49.078125 C 78.433594 48.265625 78.042969 47.351563 77.539063 46.320313 C 77.035156 45.300781 76.671875 44.496094 76.449219 43.917969 C 76.226563 43.339844 76.113281 42.738281 76.113281 42.125 C 76.113281 40.90625 76.496094 39.871094 77.257813 39.023438 C 78.015625 38.175781 78.972656 37.746094 80.109375 37.746094 C 80.574219 37.746094 81.039063 37.851563 81.511719 38.054688 Z M 97.152344 46.171875 L 97.152344 44.0625 C 97.152344 42.605469 96.945313 41.554688 96.519531 40.894531 C 96.101563 40.230469 95.421875 39.902344 94.492188 39.902344 C 93.546875 39.902344 92.871094 40.21875 92.46875 40.855469 C 92.070313 41.492188 91.871094 42.566406 91.871094 44.0625 L 91.871094 46.171875 Z M 98.808594 48.109375 L 90.132813 48.109375 L 90.132813 44.761719 C 90.132813 40.34375 91.585938 38.136719 94.488281 38.136719 C 97.367188 38.136719 98.808594 40.375 98.808594 44.851563 Z M 100.542969 44.964844 C 100.542969 39.128906 98.523438 36.207031 94.488281 36.207031 C 92.28125 36.207031 90.710938 37.027344 89.789063 38.664063 C 88.859375 40.300781 88.394531 42.394531 88.394531 44.964844 L 88.394531 50.046875 L 100.542969 50.046875 Z M 102.28125 44.851563 L 102.28125 61.308594 L 100.542969 61.308594 L 100.542969 51.894531 L 88.394531 51.894531 L 88.394531 61.308594 L 86.742188 61.308594 L 86.742188 45.136719 C 86.742188 43.070313 86.984375 41.230469 87.46875 39.617188 C 87.957031 38.003906 88.78125 36.710938 89.9375 35.734375 C 91.09375 34.757813 92.609375 34.269531 94.492188 34.269531 C 95.933594 34.269531 97.171875 34.546875 98.1875 35.105469 C 99.207031 35.667969 100.019531 36.425781 100.613281 37.394531 C 101.210938 38.363281 101.640625 39.480469 101.898438 40.75 C 102.152344 42.019531 102.28125 43.386719 102.28125 44.851563 Z M 97.152344 55.765625 L 91.871094 55.765625 L 91.871094 61.308594 L 90.132813 61.308594 L 90.132813 53.832031 L 98.808594 53.832031 L 98.808594 61.308594 L 97.152344 61.308594 Z M 105.671875 44.851563 L 105.671875 61.308594 L 103.9375 61.308594 L 103.9375 44.851563 C 103.9375 41.082031 103.203125 38.070313 101.730469 35.808594 C 100.253906 33.550781 97.847656 32.421875 94.488281 32.421875 C 92.757813 32.421875 91.277344 32.746094 90.066406 33.398438 C 88.847656 34.054688 87.863281 34.96875 87.117188 36.140625 C 86.363281 37.3125 85.824219 38.679688 85.496094 40.226563 C 85.164063 41.773438 85.003906 43.4375 85.003906 45.226563 L 85.003906 61.308594 L 83.269531 61.308594 L 83.269531 45.359375 C 83.269531 42.058594 83.738281 39.292969 84.671875 37.0625 C 85.617188 34.835938 86.921875 33.183594 88.597656 32.101563 C 90.273438 31.027344 92.238281 30.488281 94.5 30.488281 C 96.128906 30.488281 97.628906 30.792969 99.011719 31.410156 C 100.390625 32.027344 101.574219 32.941406 102.570313 34.152344 C 103.558594 35.359375 104.328125 36.867188 104.867188 38.671875 C 105.402344 40.472656 105.671875 42.539063 105.671875 44.851563 Z M 122.730469 43.777344 L 122.730469 54.003906 C 122.492188 54.003906 122.304688 54.011719 122.164063 54.019531 C 122.027344 54.023438 121.882813 54.03125 121.71875 54.046875 C 120.089844 54.046875 118.730469 53.800781 117.648438 53.304688 C 116.5625 52.800781 115.742188 51.960938 115.191406 50.773438 C 114.636719 49.582031 114.363281 48.019531 114.363281 46.089844 C 114.363281 44.308594 114.691406 42.824219 115.34375 41.621094 C 116.003906 40.421875 116.925781 39.519531 118.113281 38.933594 C 119.289063 38.347656 120.667969 38.054688 122.230469 38.054688 L 123.804688 38.054688 C 125.703125 38.054688 127.601563 38.355469 129.507813 38.957031 L 129.507813 40.714844 C 127.152344 40.171875 125.039063 39.902344 123.160156 39.902344 C 120.84375 39.902344 119.085938 40.464844 117.894531 41.585938 C 116.699219 42.710938 116.097656 44.324219 116.097656 46.433594 C 116.097656 48.523438 116.652344 50.070313 117.753906 51.082031 C 118.191406 51.480469 118.65625 51.742188 119.167969 51.886719 C 119.671875 52.019531 120.332031 52.117188 121.148438 52.15625 L 121.148438 43.777344 Z M 126.121094 43.777344 L 126.121094 57.441406 C 125.238281 57.675781 124.4375 57.816406 123.726563 57.878906 C 123.003906 57.9375 122.148438 57.96875 121.148438 57.96875 C 119.597656 57.96875 118.199219 57.691406 116.960938 57.140625 C 115.714844 56.59375 114.644531 55.789063 113.742188 54.746094 C 112.847656 53.695313 112.160156 52.441406 111.683594 50.984375 C 111.210938 49.519531 110.976563 47.953125 110.976563 46.261719 C 110.976563 42.523438 111.886719 39.648438 113.695313 37.628906 C 115.515625 35.605469 118.058594 34.488281 121.34375 34.269531 L 122.148438 34.269531 C 124.808594 34.269531 127.257813 34.570313 129.507813 35.171875 L 129.507813 37.019531 C 128.179688 36.652344 126.882813 36.410156 125.617188 36.289063 C 124.34375 36.175781 123.21875 36.117188 122.230469 36.117188 C 120.789063 36.117188 119.476563 36.328125 118.300781 36.75 C 117.121094 37.160156 116.113281 37.800781 115.265625 38.648438 C 114.417969 39.496094 113.765625 40.554688 113.3125 41.816406 C 112.863281 43.078125 112.632813 44.527344 112.632813 46.171875 C 112.632813 48.535156 112.988281 50.445313 113.695313 51.894531 C 114.410156 53.34375 115.398438 54.394531 116.671875 55.03125 C 117.949219 55.667969 119.476563 56 121.269531 56.03125 C 121.617188 56 122.144531 55.953125 122.824219 55.894531 C 123.507813 55.84375 124.027344 55.796875 124.382813 55.765625 L 124.382813 43.777344 Z M 129.507813 43.777344 L 129.507813 61.308594 C 127.257813 61.796875 124.863281 62.035156 122.3125 62.035156 C 119.457031 62.035156 116.90625 61.421875 114.660156 60.191406 C 112.410156 58.957031 110.660156 57.164063 109.394531 54.820313 C 108.136719 52.472656 107.503906 49.679688 107.503906 46.433594 C 107.503906 43.890625 107.875 41.605469 108.609375 39.609375 C 109.339844 37.605469 110.390625 35.929688 111.75 34.578125 C 113.117188 33.226563 114.726563 32.214844 116.582031 31.523438 C 118.449219 30.832031 120.492188 30.488281 122.730469 30.488281 C 124.894531 30.488281 127.15625 30.757813 129.507813 31.304688 L 129.507813 33.234375 C 128.8125 33.0625 128.019531 32.910156 127.128906 32.796875 C 126.242188 32.679688 125.367188 32.589844 124.511719 32.519531 C 123.652344 32.453125 122.835938 32.421875 122.078125 32.421875 C 120.117188 32.421875 118.347656 32.738281 116.757813 33.371094 C 115.175781 34 113.824219 34.925781 112.699219 36.132813 C 111.578125 37.339844 110.722656 38.804688 110.128906 40.519531 C 109.535156 42.238281 109.242188 44.183594 109.242188 46.351563 C 109.242188 48.445313 109.535156 50.347656 110.128906 52.050781 C 110.722656 53.746094 111.578125 55.195313 112.695313 56.390625 C 113.8125 57.585938 115.144531 58.507813 116.691406 59.144531 C 118.246094 59.785156 119.9375 60.097656 121.757813 60.097656 C 123.847656 60.097656 125.878906 59.890625 127.851563 59.460938 L 127.851563 43.777344 Z M 126.4375 20.816406 L 127.695313 20.816406 C 127.496094 22.878906 126.835938 24.515625 125.703125 25.71875 C 124.574219 26.917969 123.132813 27.519531 121.382813 27.519531 C 120.183594 27.519531 119.148438 27.257813 118.265625 26.730469 C 117.386719 26.199219 116.699219 25.441406 116.207031 24.441406 C 115.714844 23.445313 115.433594 22.234375 115.371094 20.816406 L 116.570313 20.816406 C 116.679688 22.511719 117.148438 23.839844 117.988281 24.796875 C 118.832031 25.75 119.960938 26.222656 121.382813 26.222656 C 122.265625 26.222656 123.078125 25.996094 123.820313 25.554688 C 124.566406 25.101563 125.164063 24.464844 125.617188 23.640625 C 126.074219 22.8125 126.34375 21.867188 126.4375 20.816406 Z M 125.191406 20.816406 C 125.078125 22.015625 124.679688 22.976563 124.019531 23.691406 C 123.355469 24.414063 122.507813 24.773438 121.464844 24.773438 C 120.398438 24.773438 119.546875 24.425781 118.914063 23.730469 C 118.273438 23.03125 117.917969 22.0625 117.835938 20.816406 L 119.074219 20.816406 C 119.207031 21.695313 119.484375 22.371094 119.910156 22.851563 C 120.324219 23.324219 120.84375 23.5625 121.464844 23.5625 C 122.78125 23.5625 123.644531 22.648438 124.046875 20.816406 Z M 125.191406 20.816406 "/>
</g>
</svg>
